# Blender 4.5.2 LTS
# www.blender.org
mtllib Drone.mtl
o Cube
v 0.431394 -0.114022 0.546133
v 0.421518 0.114022 0.520803
v 0.431394 -0.114022 -0.546133
v 0.421518 0.114022 -0.520803
v 0.000000 0.114022 0.546133
v 0.000000 -0.114022 0.546133
v 0.000000 0.114022 -0.546133
v 0.000000 -0.114022 -0.546133
v 0.837029 -0.114022 -0.173091
v 0.837029 -0.114022 0.173091
v 0.720572 0.114022 0.097107
v 0.720572 0.114022 -0.097107
v 0.000000 0.114022 0.173091
v 0.000000 0.114022 -0.173091
v 0.000000 -0.114022 0.173091
v 0.000000 -0.114022 -0.173091
v 0.772067 0.114022 -0.198421
v 0.772067 0.114022 0.198421
v 0.116457 0.114022 -0.097107
v 0.116457 0.114022 0.097107
v 0.207233 0.228379 0.097107
v 0.116457 0.137602 0.097107
v 0.116457 0.137602 -0.097107
v 0.207233 0.228379 -0.097107
v 0.629796 0.228379 -0.097107
v 0.720572 0.137602 -0.097107
v 0.720572 0.137602 0.097107
v 0.629796 0.228379 0.097107
v 0.431394 0.114022 -0.546133
v 0.025330 0.114022 -0.520803
v 0.431394 0.114022 0.546133
v 0.837029 0.114022 -0.173091
v 0.025330 0.114022 0.520803
v 0.025330 0.114022 0.198421
v 0.025330 0.114022 -0.198421
v 0.837029 0.114022 0.173091
v 0.025330 0.098806 -0.520803
v 0.025330 0.098806 -0.198421
v 0.025330 0.098806 0.198421
v 0.025330 0.098806 0.520803
v 0.421518 0.098806 -0.520803
v 0.421518 0.098806 0.520803
v 0.772067 0.098806 -0.198421
v 0.772067 0.098806 0.198421
v -0.431394 -0.114022 0.546133
v -0.421518 0.114022 0.520803
v -0.431394 -0.114022 -0.546133
v -0.421518 0.114022 -0.520803
v -0.837029 -0.114022 -0.173091
v -0.837029 -0.114022 0.173091
v -0.720572 0.114022 0.097107
v -0.720572 0.114022 -0.097107
v -0.772067 0.114022 -0.198421
v -0.772067 0.114022 0.198421
v -0.116457 0.114022 -0.097107
v -0.116457 0.114022 0.097107
v -0.207233 0.228379 0.097107
v -0.116457 0.137602 0.097107
v -0.116457 0.137602 -0.097107
v -0.207233 0.228379 -0.097107
v -0.629796 0.228379 -0.097107
v -0.720572 0.137602 -0.097107
v -0.720572 0.137602 0.097107
v -0.629796 0.228379 0.097107
v -0.431394 0.114022 -0.546133
v -0.025330 0.114022 -0.520803
v -0.431394 0.114022 0.546133
v -0.837029 0.114022 -0.173091
v -0.025330 0.114022 0.520803
v -0.025330 0.114022 0.198421
v -0.025330 0.114022 -0.198421
v -0.837029 0.114022 0.173091
v -0.025330 0.098806 -0.520803
v -0.025330 0.098806 -0.198421
v -0.025330 0.098806 0.198421
v -0.025330 0.098806 0.520803
v -0.421518 0.098806 -0.520803
v -0.421518 0.098806 0.520803
v -0.772067 0.098806 -0.198421
v -0.772067 0.098806 0.198421
v 1.097498 -0.071164 0.937113
v 1.097975 0.071164 0.926706
v 0.572829 -0.071164 0.397918
v 0.572829 0.071164 0.397918
v 1.166916 -0.071164 0.873779
v 1.156509 0.071164 0.873302
v 0.677972 -0.071164 0.301990
v 0.677972 0.071164 0.301990
v 1.014374 -0.071164 0.846003
v 1.024781 0.071164 0.846480
v 1.083792 -0.071164 0.782669
v 1.083315 0.071164 0.793077
v 1.085357 0.071164 0.748510
v 1.201076 0.071164 0.875345
v 1.095933 0.071164 0.971273
v 0.980214 0.071164 0.844438
v 1.086023 0.336793 0.815747
v 1.134181 0.336793 0.868532
v 1.095267 0.336793 0.904036
v 1.047108 0.336793 0.851251
v 1.083315 0.336793 0.793077
v 1.156509 0.336793 0.873302
v 1.097975 0.336793 0.926706
v 1.024781 0.336793 0.846480
v 1.086023 0.433333 0.815747
v 1.134181 0.433333 0.868532
v 1.095267 0.433333 0.904036
v 1.047108 0.433333 0.851251
v 0.980214 -0.071164 0.844438
v 1.095933 -0.071164 0.971273
v 1.201076 -0.071164 0.875345
v 1.085357 -0.071164 0.748510
v 1.014374 -0.048643 0.846003
v 1.097498 -0.048643 0.937113
v 1.166916 -0.048643 0.873779
v 1.083792 -0.048643 0.782669
v -1.097498 -0.071164 0.937113
v -1.097975 0.071164 0.926706
v -0.572829 -0.071164 0.397918
v -0.572829 0.071164 0.397918
v -1.166916 -0.071164 0.873779
v -1.156509 0.071164 0.873302
v -0.677972 -0.071164 0.301990
v -0.677972 0.071164 0.301990
v -1.014374 -0.071164 0.846003
v -1.024781 0.071164 0.846480
v -1.083792 -0.071164 0.782669
v -1.083315 0.071164 0.793077
v -1.085357 0.071164 0.748510
v -1.201076 0.071164 0.875345
v -1.095932 0.071164 0.971273
v -0.980214 0.071164 0.844438
v -1.086023 0.336793 0.815747
v -1.134181 0.336793 0.868532
v -1.095267 0.336793 0.904036
v -1.047108 0.336793 0.851251
v -1.083315 0.336793 0.793077
v -1.156509 0.336793 0.873302
v -1.097975 0.336793 0.926706
v -1.024781 0.336793 0.846480
v -1.086023 0.433333 0.815747
v -1.134181 0.433333 0.868532
v -1.095267 0.433333 0.904036
v -1.047108 0.433333 0.851251
v -0.980214 -0.071164 0.844438
v -1.095932 -0.071164 0.971273
v -1.201076 -0.071164 0.875345
v -1.085357 -0.071164 0.748510
v -1.014374 -0.048643 0.846003
v -1.097498 -0.048643 0.937113
v -1.166916 -0.048643 0.873779
v -1.083792 -0.048643 0.782669
v 1.097498 -0.071164 -0.937113
v 1.097975 0.071164 -0.926706
v 0.572829 -0.071164 -0.397918
v 0.572829 0.071164 -0.397918
v 1.166916 -0.071164 -0.873779
v 1.156509 0.071164 -0.873302
v 0.677972 -0.071164 -0.301990
v 0.677972 0.071164 -0.301990
v 1.014374 -0.071164 -0.846004
v 1.024781 0.071164 -0.846481
v 1.083792 -0.071164 -0.782669
v 1.083315 0.071164 -0.793077
v 1.085357 0.071164 -0.748510
v 1.201076 0.071164 -0.875345
v 1.095933 0.071164 -0.971273
v 0.980214 0.071164 -0.844438
v 1.086023 0.336793 -0.815747
v 1.134181 0.336793 -0.868532
v 1.095267 0.336793 -0.904036
v 1.047108 0.336793 -0.851251
v 1.083315 0.336793 -0.793077
v 1.156509 0.336793 -0.873302
v 1.097975 0.336793 -0.926706
v 1.024781 0.336793 -0.846481
v 1.086023 0.433333 -0.815747
v 1.134181 0.433333 -0.868532
v 1.095267 0.433333 -0.904036
v 1.047108 0.433333 -0.851251
v 0.980214 -0.071164 -0.844438
v 1.095933 -0.071164 -0.971273
v 1.201076 -0.071164 -0.875345
v 1.085357 -0.071164 -0.748510
v 1.014374 -0.048643 -0.846004
v 1.097498 -0.048643 -0.937113
v 1.166916 -0.048643 -0.873779
v 1.083792 -0.048643 -0.782669
v -1.097498 -0.071164 -0.937113
v -1.097975 0.071164 -0.926706
v -0.572829 -0.071164 -0.397918
v -0.572829 0.071164 -0.397918
v -1.166916 -0.071164 -0.873779
v -1.156509 0.071164 -0.873302
v -0.677972 -0.071164 -0.301990
v -0.677972 0.071164 -0.301990
v -1.014374 -0.071164 -0.846004
v -1.024781 0.071164 -0.846481
v -1.083792 -0.071164 -0.782669
v -1.083315 0.071164 -0.793077
v -1.085357 0.071164 -0.748510
v -1.201076 0.071164 -0.875345
v -1.095932 0.071164 -0.971273
v -0.980214 0.071164 -0.844438
v -1.086023 0.336793 -0.815747
v -1.134181 0.336793 -0.868532
v -1.095267 0.336793 -0.904036
v -1.047108 0.336793 -0.851251
v -1.083315 0.336793 -0.793077
v -1.156509 0.336793 -0.873302
v -1.097975 0.336793 -0.926706
v -1.024781 0.336793 -0.846481
v -1.086023 0.433333 -0.815747
v -1.134181 0.433333 -0.868532
v -1.095267 0.433333 -0.904036
v -1.047108 0.433333 -0.851251
v -0.980214 -0.071164 -0.844438
v -1.095932 -0.071164 -0.971273
v -1.201076 -0.071164 -0.875345
v -1.085357 -0.071164 -0.748510
v -1.014374 -0.048643 -0.846004
v -1.097498 -0.048643 -0.937113
v -1.166916 -0.048643 -0.873779
v -1.083792 -0.048643 -0.782669
v 1.090645 0.427004 0.841962
v 1.097506 0.427004 0.843327
v 1.103323 0.427004 0.847213
v 1.107210 0.427004 0.853030
v 1.108574 0.427004 0.859891
v 1.107210 0.427004 0.866753
v 1.103323 0.427004 0.872569
v 1.097506 0.427004 0.876456
v 1.090645 0.427004 0.877821
v 1.083784 0.427004 0.876456
v 1.077967 0.427004 0.872569
v 1.074080 0.427004 0.866753
v 1.072716 0.427004 0.859891
v 1.074080 0.427004 0.853030
v 1.077967 0.427004 0.847213
v 1.083784 0.427004 0.843327
v 1.090645 0.493847 0.852789
v 1.090645 0.487161 0.841962
v 1.090645 0.491889 0.845133
v 1.093363 0.493847 0.853329
v 1.097506 0.487161 0.843327
v 1.096293 0.491889 0.846256
v 1.095667 0.493847 0.854869
v 1.103323 0.487161 0.847213
v 1.101081 0.491889 0.849456
v 1.097207 0.493847 0.857173
v 1.107210 0.487161 0.853030
v 1.104280 0.491889 0.854243
v 1.097748 0.493847 0.859891
v 1.108574 0.487161 0.859891
v 1.105403 0.491889 0.859891
v 1.097207 0.493847 0.862609
v 1.107210 0.487161 0.866753
v 1.104280 0.491889 0.865539
v 1.095667 0.493847 0.864914
v 1.103323 0.487161 0.872569
v 1.101081 0.491889 0.870327
v 1.093363 0.493847 0.866453
v 1.097506 0.487161 0.876456
v 1.096293 0.491889 0.873526
v 1.090645 0.493847 0.866994
v 1.090645 0.487161 0.877821
v 1.090645 0.491889 0.874650
v 1.087927 0.493847 0.866453
v 1.083784 0.487161 0.876456
v 1.084997 0.491889 0.873526
v 1.085623 0.493847 0.864914
v 1.077967 0.487161 0.872569
v 1.080209 0.491889 0.870327
v 1.084083 0.493847 0.862609
v 1.074080 0.487161 0.866753
v 1.077010 0.491889 0.865539
v 1.083542 0.493847 0.859891
v 1.072716 0.487161 0.859891
v 1.075887 0.491889 0.859891
v 1.084083 0.493847 0.857173
v 1.074080 0.487161 0.853030
v 1.077010 0.491889 0.854243
v 1.085623 0.493847 0.854869
v 1.077967 0.487161 0.847213
v 1.080209 0.491889 0.849456
v 1.087927 0.493847 0.853329
v 1.083784 0.487161 0.843327
v 1.084997 0.491889 0.846256
v -1.090645 0.427004 0.841962
v -1.097506 0.427004 0.843327
v -1.103323 0.427004 0.847213
v -1.107210 0.427004 0.853030
v -1.108574 0.427004 0.859891
v -1.107210 0.427004 0.866753
v -1.103323 0.427004 0.872569
v -1.097506 0.427004 0.876456
v -1.090645 0.427004 0.877821
v -1.083784 0.427004 0.876456
v -1.077967 0.427004 0.872569
v -1.074080 0.427004 0.866753
v -1.072715 0.427004 0.859891
v -1.074080 0.427004 0.853030
v -1.077967 0.427004 0.847213
v -1.083784 0.427004 0.843327
v -1.090645 0.493848 0.852789
v -1.090645 0.487161 0.841962
v -1.090645 0.491889 0.845133
v -1.093363 0.493848 0.853329
v -1.097506 0.487161 0.843327
v -1.096293 0.491889 0.846256
v -1.095667 0.493848 0.854869
v -1.103323 0.487161 0.847213
v -1.101081 0.491889 0.849456
v -1.097207 0.493848 0.857173
v -1.107210 0.487161 0.853030
v -1.104280 0.491889 0.854243
v -1.097747 0.493848 0.859891
v -1.108574 0.487161 0.859891
v -1.105403 0.491889 0.859891
v -1.097207 0.493848 0.862609
v -1.107210 0.487161 0.866753
v -1.104280 0.491889 0.865539
v -1.095667 0.493848 0.864914
v -1.103323 0.487161 0.872569
v -1.101081 0.491889 0.870327
v -1.093363 0.493848 0.866453
v -1.097506 0.487161 0.876456
v -1.096293 0.491889 0.873526
v -1.090645 0.493848 0.866994
v -1.090645 0.487161 0.877821
v -1.090645 0.491889 0.874650
v -1.087927 0.493848 0.866453
v -1.083784 0.487161 0.876456
v -1.084997 0.491889 0.873526
v -1.085623 0.493848 0.864914
v -1.077967 0.487161 0.872569
v -1.080209 0.491889 0.870327
v -1.084083 0.493848 0.862609
v -1.074080 0.487161 0.866753
v -1.077010 0.491889 0.865539
v -1.083542 0.493848 0.859891
v -1.072715 0.487161 0.859891
v -1.075887 0.491889 0.859891
v -1.084083 0.493848 0.857173
v -1.074080 0.487161 0.853030
v -1.077010 0.491889 0.854243
v -1.085623 0.493848 0.854869
v -1.077967 0.487161 0.847213
v -1.080209 0.491889 0.849456
v -1.087927 0.493848 0.853329
v -1.083784 0.487161 0.843327
v -1.084997 0.491889 0.846256
v 1.090645 0.427004 -0.841962
v 1.097506 0.427004 -0.843327
v 1.103323 0.427004 -0.847213
v 1.107210 0.427004 -0.853030
v 1.108574 0.427004 -0.859891
v 1.107210 0.427004 -0.866753
v 1.103323 0.427004 -0.872570
v 1.097506 0.427004 -0.876456
v 1.090645 0.427004 -0.877821
v 1.083784 0.427004 -0.876456
v 1.077967 0.427004 -0.872570
v 1.074080 0.427004 -0.866753
v 1.072716 0.427004 -0.859891
v 1.074080 0.427004 -0.853030
v 1.077967 0.427004 -0.847213
v 1.083784 0.427004 -0.843327
v 1.090645 0.493848 -0.852789
v 1.090645 0.487161 -0.841962
v 1.090645 0.491889 -0.845133
v 1.093363 0.493848 -0.853329
v 1.097506 0.487161 -0.843327
v 1.096293 0.491889 -0.846257
v 1.095667 0.493848 -0.854869
v 1.103323 0.487161 -0.847213
v 1.101081 0.491889 -0.849456
v 1.097207 0.493848 -0.857173
v 1.107210 0.487161 -0.853030
v 1.104280 0.491889 -0.854244
v 1.097748 0.493848 -0.859891
v 1.108574 0.487161 -0.859891
v 1.105403 0.491889 -0.859891
v 1.097207 0.493848 -0.862609
v 1.107210 0.487161 -0.866753
v 1.104280 0.491889 -0.865539
v 1.095667 0.493848 -0.864914
v 1.103323 0.487161 -0.872570
v 1.101081 0.491889 -0.870327
v 1.093363 0.493848 -0.866453
v 1.097506 0.487161 -0.876456
v 1.096293 0.491889 -0.873526
v 1.090645 0.493848 -0.866994
v 1.090645 0.487161 -0.877821
v 1.090645 0.491889 -0.874650
v 1.087927 0.493848 -0.866453
v 1.083784 0.487161 -0.876456
v 1.084997 0.491889 -0.873526
v 1.085623 0.493848 -0.864914
v 1.077967 0.487161 -0.872570
v 1.080209 0.491889 -0.870327
v 1.084083 0.493848 -0.862609
v 1.074080 0.487161 -0.866753
v 1.077010 0.491889 -0.865539
v 1.083542 0.493848 -0.859891
v 1.072716 0.487161 -0.859891
v 1.075887 0.491889 -0.859891
v 1.084083 0.493848 -0.857173
v 1.074080 0.487161 -0.853030
v 1.077010 0.491889 -0.854244
v 1.085623 0.493848 -0.854869
v 1.077967 0.487161 -0.847213
v 1.080209 0.491889 -0.849456
v 1.087927 0.493848 -0.853329
v 1.083784 0.487161 -0.843327
v 1.084997 0.491889 -0.846257
v -1.090645 0.427005 -0.841962
v -1.097506 0.427005 -0.843327
v -1.103323 0.427005 -0.847213
v -1.107209 0.427005 -0.853030
v -1.108574 0.427005 -0.859891
v -1.107209 0.427005 -0.866753
v -1.103323 0.427005 -0.872570
v -1.097506 0.427005 -0.876456
v -1.090645 0.427005 -0.877821
v -1.083784 0.427005 -0.876456
v -1.077967 0.427005 -0.872570
v -1.074080 0.427005 -0.866753
v -1.072715 0.427005 -0.859891
v -1.074080 0.427005 -0.853030
v -1.077967 0.427005 -0.847213
v -1.083784 0.427005 -0.843327
v -1.090645 0.493848 -0.852789
v -1.090645 0.487161 -0.841962
v -1.090645 0.491889 -0.845133
v -1.093363 0.493848 -0.853329
v -1.097506 0.487161 -0.843327
v -1.096293 0.491889 -0.846257
v -1.095667 0.493848 -0.854869
v -1.103323 0.487161 -0.847213
v -1.101081 0.491889 -0.849456
v -1.097207 0.493848 -0.857173
v -1.107209 0.487161 -0.853030
v -1.104280 0.491889 -0.854244
v -1.097747 0.493848 -0.859891
v -1.108574 0.487161 -0.859891
v -1.105403 0.491889 -0.859891
v -1.097207 0.493848 -0.862609
v -1.107209 0.487161 -0.866753
v -1.104280 0.491889 -0.865539
v -1.095667 0.493848 -0.864914
v -1.103323 0.487161 -0.872570
v -1.101081 0.491889 -0.870327
v -1.093363 0.493848 -0.866453
v -1.097506 0.487161 -0.876456
v -1.096293 0.491889 -0.873526
v -1.090645 0.493848 -0.866994
v -1.090645 0.487161 -0.877821
v -1.090645 0.491889 -0.874650
v -1.087927 0.493848 -0.866453
v -1.083784 0.487161 -0.876456
v -1.084997 0.491889 -0.873526
v -1.085622 0.493848 -0.864914
v -1.077967 0.487161 -0.872570
v -1.080209 0.491889 -0.870327
v -1.084083 0.493848 -0.862609
v -1.074080 0.487161 -0.866753
v -1.077010 0.491889 -0.865539
v -1.083542 0.493848 -0.859891
v -1.072715 0.487161 -0.859891
v -1.075887 0.491889 -0.859891
v -1.084083 0.493848 -0.857173
v -1.074080 0.487161 -0.853030
v -1.077010 0.491889 -0.854244
v -1.085622 0.493848 -0.854869
v -1.077967 0.487161 -0.847213
v -1.080209 0.491889 -0.849456
v -1.087927 0.493848 -0.853329
v -1.083784 0.487161 -0.843327
v -1.084997 0.491889 -0.846257
v 1.266167 0.465129 1.023034
v 1.266167 0.480118 1.023034
v 0.857220 0.465129 0.805707
v 0.857220 0.480118 0.805707
v 1.324070 0.465129 0.914076
v 1.324070 0.480118 0.914076
v 0.915123 0.465129 0.696748
v 0.915123 0.480118 0.696748
v 0.931266 0.465129 0.830847
v 1.005364 0.465129 0.855891
v 1.076231 0.465129 0.887014
v 1.141679 0.465129 0.928334
v 1.203897 0.465129 0.975732
v 1.203897 0.480118 0.975732
v 1.141679 0.480118 0.928334
v 1.076231 0.480118 0.887014
v 1.005364 0.480118 0.855891
v 0.931266 0.480118 0.830847
v 1.250024 0.465129 0.888935
v 1.175926 0.465129 0.863891
v 1.105059 0.465129 0.832768
v 1.039611 0.465129 0.791449
v 0.977393 0.465129 0.744050
v 0.977393 0.480118 0.744050
v 1.039611 0.480118 0.791449
v 1.105059 0.480118 0.832768
v 1.175926 0.480118 0.863891
v 1.250024 0.480118 0.888935
v 1.028951 0.433020 1.091445
v 1.028951 0.448009 1.091445
v 1.028951 0.433020 0.628337
v 1.028951 0.448009 0.628337
v 1.152339 0.433020 1.091445
v 1.152339 0.448009 1.091445
v 1.152339 0.433020 0.628337
v 1.152339 0.448009 0.628337
v 1.041499 0.433020 0.705522
v 1.054156 0.433020 0.782707
v 1.059929 0.433020 0.859891
v 1.054156 0.433020 0.937076
v 1.041499 0.433020 1.014261
v 1.041499 0.448009 1.014261
v 1.054156 0.448009 0.937076
v 1.059929 0.448009 0.859891
v 1.054156 0.448009 0.782707
v 1.041499 0.448009 0.705522
v 1.139791 0.433020 1.014261
v 1.127134 0.433020 0.937076
v 1.121360 0.433020 0.859891
v 1.127134 0.433020 0.782707
v 1.139791 0.433020 0.705522
v 1.139791 0.448009 0.705522
v 1.127134 0.448009 0.782707
v 1.121360 0.448009 0.859891
v 1.127134 0.448009 0.937076
v 1.139791 0.448009 1.014261
v -1.266166 0.465129 1.023034
v -1.266166 0.480118 1.023034
v -0.857219 0.465129 0.805707
v -0.857219 0.480118 0.805707
v -1.324070 0.465129 0.914076
v -1.324070 0.480118 0.914076
v -0.915123 0.465129 0.696749
v -0.915123 0.480118 0.696749
v -0.931266 0.465129 0.830847
v -1.005363 0.465129 0.855891
v -1.076230 0.465129 0.887015
v -1.141679 0.465129 0.928334
v -1.203897 0.465129 0.975732
v -1.203897 0.480118 0.975732
v -1.141679 0.480118 0.928334
v -1.076230 0.480118 0.887015
v -1.005363 0.480118 0.855891
v -0.931266 0.480118 0.830847
v -1.250024 0.465129 0.888935
v -1.175926 0.465129 0.863891
v -1.105059 0.465129 0.832768
v -1.039610 0.465129 0.791449
v -0.977392 0.465129 0.744050
v -0.977392 0.480118 0.744050
v -1.039610 0.480118 0.791449
v -1.105059 0.480118 0.832768
v -1.175926 0.480118 0.863891
v -1.250024 0.480118 0.888935
v -1.028950 0.433020 1.091445
v -1.028950 0.448009 1.091445
v -1.028950 0.433020 0.628338
v -1.028950 0.448009 0.628338
v -1.152339 0.433020 1.091445
v -1.152339 0.448009 1.091445
v -1.152339 0.433020 0.628337
v -1.152339 0.448009 0.628337
v -1.041499 0.433020 0.705522
v -1.054156 0.433020 0.782707
v -1.059929 0.433020 0.859891
v -1.054156 0.433020 0.937076
v -1.041498 0.433020 1.014261
v -1.041499 0.448009 1.014261
v -1.054156 0.448009 0.937076
v -1.059929 0.448009 0.859891
v -1.054156 0.448009 0.782707
v -1.041499 0.448009 0.705522
v -1.139791 0.433020 1.014261
v -1.127133 0.433020 0.937076
v -1.121360 0.433020 0.859891
v -1.127133 0.433020 0.782707
v -1.139791 0.433020 0.705522
v -1.139791 0.448009 0.705522
v -1.127133 0.448009 0.782707
v -1.121360 0.448009 0.859891
v -1.127133 0.448009 0.937076
v -1.139791 0.448009 1.014261
v 1.266167 0.465129 -1.023034
v 1.266167 0.480118 -1.023034
v 0.857220 0.465129 -0.805707
v 0.857220 0.480118 -0.805707
v 1.324070 0.465129 -0.914076
v 1.324070 0.480118 -0.914076
v 0.915123 0.465129 -0.696748
v 0.915123 0.480118 -0.696748
v 0.931266 0.465129 -0.830847
v 1.005364 0.465129 -0.855891
v 1.076231 0.465129 -0.887014
v 1.141680 0.465129 -0.928334
v 1.203897 0.465129 -0.975732
v 1.203897 0.480118 -0.975732
v 1.141680 0.480118 -0.928334
v 1.076231 0.480118 -0.887014
v 1.005364 0.480118 -0.855891
v 0.931266 0.480118 -0.830847
v 1.250024 0.465129 -0.888935
v 1.175926 0.465129 -0.863891
v 1.105059 0.465129 -0.832768
v 1.039611 0.465129 -0.791449
v 0.977393 0.465129 -0.744050
v 0.977393 0.480118 -0.744050
v 1.039611 0.480118 -0.791449
v 1.105059 0.480118 -0.832768
v 1.175926 0.480118 -0.863891
v 1.250024 0.480118 -0.888935
v 1.028951 0.433020 -1.091445
v 1.028951 0.448009 -1.091445
v 1.028951 0.433020 -0.628337
v 1.028951 0.448009 -0.628337
v 1.152339 0.433020 -1.091445
v 1.152339 0.448009 -1.091445
v 1.152339 0.433020 -0.628337
v 1.152339 0.448009 -0.628337
v 1.041499 0.433020 -0.705522
v 1.054156 0.433020 -0.782707
v 1.059929 0.433020 -0.859891
v 1.054156 0.433020 -0.937076
v 1.041499 0.433020 -1.014260
v 1.041499 0.448009 -1.014260
v 1.054156 0.448009 -0.937076
v 1.059930 0.448009 -0.859891
v 1.054156 0.448009 -0.782707
v 1.041499 0.448009 -0.705522
v 1.139791 0.433020 -1.014260
v 1.127134 0.433020 -0.937076
v 1.121360 0.433020 -0.859891
v 1.127134 0.433020 -0.782707
v 1.139791 0.433020 -0.705522
v 1.139791 0.448009 -0.705522
v 1.127134 0.448009 -0.782707
v 1.121360 0.448009 -0.859891
v 1.127134 0.448009 -0.937076
v 1.139791 0.448009 -1.014260
v -1.266166 0.465129 -1.023034
v -1.266166 0.480118 -1.023034
v -0.857219 0.465129 -0.805707
v -0.857219 0.480118 -0.805707
v -1.324070 0.465129 -0.914076
v -1.324070 0.480118 -0.914076
v -0.915123 0.465129 -0.696749
v -0.915123 0.480118 -0.696749
v -0.931266 0.465129 -0.830847
v -1.005363 0.465129 -0.855892
v -1.076230 0.465129 -0.887015
v -1.141679 0.465129 -0.928334
v -1.203897 0.465129 -0.975732
v -1.203897 0.480118 -0.975732
v -1.141679 0.480118 -0.928334
v -1.076230 0.480118 -0.887015
v -1.005363 0.480118 -0.855892
v -0.931266 0.480118 -0.830847
v -1.250023 0.465129 -0.888935
v -1.175926 0.465129 -0.863891
v -1.105058 0.465129 -0.832768
v -1.039610 0.465129 -0.791449
v -0.977392 0.465129 -0.744051
v -0.977392 0.480118 -0.744051
v -1.039610 0.480118 -0.791449
v -1.105059 0.480118 -0.832768
v -1.175926 0.480118 -0.863891
v -1.250023 0.480118 -0.888935
v -1.028950 0.433020 -1.091445
v -1.028950 0.448009 -1.091445
v -1.028950 0.433020 -0.628337
v -1.028950 0.448009 -0.628337
v -1.152339 0.433020 -1.091445
v -1.152339 0.448009 -1.091445
v -1.152339 0.433020 -0.628338
v -1.152339 0.448009 -0.628338
v -1.041498 0.433020 -0.705522
v -1.054156 0.433020 -0.782707
v -1.059929 0.433020 -0.859891
v -1.054156 0.433020 -0.937076
v -1.041498 0.433020 -1.014261
v -1.041498 0.448009 -1.014261
v -1.054156 0.448009 -0.937076
v -1.059929 0.448009 -0.859891
v -1.054156 0.448009 -0.782707
v -1.041498 0.448009 -0.705522
v -1.139790 0.433020 -1.014261
v -1.127133 0.433020 -0.937076
v -1.121360 0.433020 -0.859891
v -1.127133 0.433020 -0.782707
v -1.139790 0.433020 -0.705522
v -1.139790 0.448009 -0.705522
v -1.127133 0.448009 -0.782707
v -1.121360 0.448009 -0.859891
v -1.127133 0.448009 -0.937076
v -1.139790 0.448009 -1.014261
vn 1.0000 -0.0000 -0.0000
vn -0.0000 -0.0000 -1.0000
vn -0.0000 -0.0000 1.0000
vn -0.6769 -0.0000 0.7361
vn -0.0000 -1.0000 -0.0000
vn 0.6769 -0.0000 -0.7361
vn 0.6769 -0.0000 0.7361
vn -0.0000 1.0000 -0.0000
vn -0.7071 0.7071 -0.0000
vn 0.7071 0.7071 -0.0000
vn -1.0000 -0.0000 -0.0000
vn -0.6769 -0.0000 -0.7361
vn -0.7387 -0.0000 0.6740
vn -0.6740 -0.0000 -0.7387
vn 0.7387 -0.0000 -0.6740
vn 0.6740 -0.0000 0.7387
vn 0.7387 -0.0000 0.6740
vn 0.6740 -0.0000 -0.7387
vn -0.7387 -0.0000 -0.6740
vn -0.6740 -0.0000 0.7387
vn 0.1630 0.5496 -0.8194
vn 0.0492 0.9676 -0.2475
vn 0.4641 0.5496 -0.6946
vn 0.1402 0.9676 -0.2098
vn 0.6946 0.5496 -0.4641
vn 0.2098 0.9676 -0.1402
vn 0.8194 0.5496 -0.1630
vn 0.2475 0.9676 -0.0492
vn 0.8194 0.5496 0.1630
vn 0.2475 0.9676 0.0492
vn 0.6946 0.5496 0.4641
vn 0.2098 0.9676 0.1402
vn 0.4641 0.5496 0.6946
vn 0.1402 0.9676 0.2098
vn 0.1630 0.5496 0.8194
vn 0.0492 0.9676 0.2475
vn -0.1630 0.5496 0.8194
vn -0.0492 0.9676 0.2475
vn -0.4641 0.5496 0.6946
vn -0.1402 0.9676 0.2098
vn -0.6946 0.5496 0.4641
vn -0.2098 0.9676 0.1402
vn -0.8194 0.5496 0.1630
vn -0.2475 0.9676 0.0492
vn -0.8194 0.5496 -0.1630
vn -0.2475 0.9676 -0.0492
vn -0.6946 0.5496 -0.4641
vn -0.2098 0.9676 -0.1402
vn -0.4641 0.5496 -0.6946
vn -0.1402 0.9676 -0.2098
vn -0.1630 0.5496 -0.8194
vn -0.0492 0.9676 -0.2475
vn 0.1951 -0.0000 -0.9808
vn -0.1951 -0.0000 -0.9808
vn 0.5556 -0.0000 -0.8315
vn 0.8315 -0.0000 -0.5556
vn 0.9808 -0.0000 -0.1951
vn 0.9808 -0.0000 0.1951
vn 0.8315 -0.0000 0.5556
vn 0.5556 -0.0000 0.8315
vn 0.1951 -0.0000 0.9808
vn -0.1951 -0.0000 0.9808
vn -0.5556 -0.0000 0.8315
vn -0.8315 -0.0000 0.5556
vn -0.9808 -0.0000 0.1951
vn -0.9808 -0.0000 -0.1951
vn -0.8315 -0.0000 -0.5556
vn -0.5556 -0.0000 -0.8315
vn -0.4641 0.5496 -0.6947
vn -0.6946 0.5496 -0.4642
vn -0.6947 0.5496 0.4642
vn -0.6947 0.5496 0.4641
vn -0.6947 0.5496 -0.4641
vn 0.6946 0.5496 -0.4642
vn 0.6946 0.5496 0.4642
vn -0.8315 -0.0000 0.5555
vn -0.8315 -0.0000 -0.5555
vn -0.3215 -0.0000 0.9469
vn -0.8830 -0.0000 -0.4693
vn 0.3215 -0.0000 -0.9469
vn 0.8830 -0.0000 0.4693
vn 0.6049 -0.0000 -0.7963
vn 0.6060 -0.0000 -0.7955
vn 0.5338 -0.0000 -0.8456
vn 0.4021 -0.0000 -0.9156
vn 0.3202 -0.0000 -0.9474
vn -0.6049 -0.0000 0.7963
vn -0.6060 -0.0000 0.7955
vn -0.5338 -0.0000 0.8456
vn -0.4021 -0.0000 0.9156
vn -0.3202 -0.0000 0.9474
vn -0.9870 -0.0000 0.1605
vn 0.9870 -0.0000 -0.1605
vn 0.9870 -0.0000 0.1605
vn 0.9868 -0.0000 0.1618
vn 0.9972 -0.0000 0.0746
vn 0.9972 -0.0000 -0.0746
vn 0.9868 -0.0000 -0.1618
vn -0.9870 -0.0000 -0.1605
vn -0.9868 -0.0000 -0.1618
vn -0.9972 -0.0000 -0.0746
vn -0.9972 -0.0000 0.0746
vn -0.9868 -0.0000 0.1618
vn 0.3215 -0.0000 0.9469
vn 0.8830 -0.0000 -0.4693
vn -0.3215 -0.0000 -0.9469
vn -0.8831 -0.0000 0.4693
vn -0.6049 -0.0000 -0.7963
vn -0.6060 -0.0000 -0.7955
vn -0.5338 -0.0000 -0.8456
vn -0.4021 -0.0000 -0.9156
vn -0.3202 -0.0000 -0.9474
vn 0.6049 -0.0000 0.7963
vn 0.6060 -0.0000 0.7955
vn 0.5338 -0.0000 0.8456
vn 0.4021 -0.0000 0.9156
vn 0.3202 -0.0000 0.9474
vn -0.8830 -0.0000 0.4693
vn -0.8831 -0.0000 -0.4693
vt 0.743576 0.505798
vt 0.745486 0.579585
vt 0.375000 0.375000
vt 0.625000 0.375000
vt 0.625000 0.500000
vt 0.375000 0.500000
vt 0.375000 0.750000
vt 0.625000 0.750000
vt 0.625000 0.875000
vt 0.375000 0.875000
vt 0.630784 0.579585
vt 0.632819 0.505798
vt 0.375000 0.664617
vt 0.250000 0.664617
vt 0.250000 0.585383
vt 0.375000 0.585383
vt 0.625000 0.664617
vt 0.625000 0.585383
vt 0.250000 0.500000
vt 0.250000 0.750000
vt 0.732609 0.602774
vt 0.642391 0.602774
vt 0.750000 0.585383
vt 0.642391 0.647226
vt 0.732609 0.647226
vt 0.750000 0.664617
vt 0.719052 0.647226
vt 0.719052 0.602774
vt 0.642392 0.647226
vt 0.655948 0.602774
vt 0.655948 0.647226
vt 0.750000 0.500000
vt 0.632819 0.744202
vt 0.743576 0.744202
vt 0.750000 0.750000
vt 0.745486 0.670415
vt 0.630784 0.670415
vt 0.375000 0.055304
vt 0.625000 0.055304
vt 0.625000 0.250000
vt 0.375000 0.250000
vt 0.375000 0.694696
vt 0.625000 0.694696
vt 0.625000 1.000000
vt 0.375000 1.000000
vt 0.167472 0.702485
vt 0.332528 0.702485
vt 0.819588 0.739838
vt 0.680412 0.739838
vt 0.875000 0.500000
vt 0.875000 0.694696
vt 0.125000 0.500000
vt 0.125000 0.694696
vt 0.375000 0.000000
vt 0.625000 0.000000
vt 0.680412 0.704858
vt 0.875000 0.750000
vt 0.819588 0.704858
vt 0.713035 0.733856
vt 0.713035 0.710840
vt 0.786965 0.733856
vt 0.786965 0.710840
vt 0.167472 0.742211
vt 0.125000 0.750000
vt 0.332528 0.742211
vt 0.750000 0.490000
vt 0.841844 0.471731
vt 0.919706 0.419706
vt 0.971731 0.341844
vt 0.990000 0.250000
vt 0.971731 0.158156
vt 0.919706 0.080294
vt 0.841844 0.028269
vt 0.750000 0.010000
vt 0.658156 0.028269
vt 0.580294 0.080294
vt 0.528269 0.158156
vt 0.510000 0.250000
vt 0.528269 0.341844
vt 0.580294 0.419706
vt 0.658156 0.471731
vt 0.937500 0.949986
vt 1.000000 0.949986
vt 0.994473 1.000000
vt 0.937500 1.000000
vt 0.341226 0.470239
vt 0.250000 0.488384
vt 0.250000 0.345074
vt 0.286383 0.337837
vt 0.875000 0.949986
vt 0.875000 1.000000
vt 0.418563 0.418563
vt 0.317227 0.317227
vt 0.812500 0.949986
vt 0.812500 1.000000
vt 0.470238 0.341226
vt 0.337837 0.286383
vt 0.750000 0.949986
vt 0.750000 1.000000
vt 0.488384 0.250000
vt 0.345074 0.250000
vt 0.687500 0.949986
vt 0.687500 1.000000
vt 0.470239 0.158774
vt 0.337837 0.213617
vt 0.625000 0.949986
vt 0.418563 0.081437
vt 0.317227 0.182773
vt 0.562500 0.949986
vt 0.562500 1.000000
vt 0.341226 0.029762
vt 0.286383 0.162163
vt 0.500000 0.949986
vt 0.500000 1.000000
vt 0.250000 0.011616
vt 0.250000 0.154926
vt 0.437500 0.949986
vt 0.437500 1.000000
vt 0.158774 0.029762
vt 0.213617 0.162163
vt 0.375000 0.949986
vt 0.375000 1.000000
vt 0.081437 0.081437
vt 0.182773 0.182773
vt 0.312500 0.949986
vt 0.312500 1.000000
vt 0.029762 0.158774
vt 0.162163 0.213617
vt 0.250000 0.949986
vt 0.250000 1.000000
vt 0.011616 0.250000
vt 0.154926 0.250000
vt 0.187500 0.949986
vt 0.187500 1.000000
vt 0.029762 0.341226
vt 0.162163 0.286383
vt 0.125000 0.949986
vt 0.125000 1.000000
vt 0.081437 0.418563
vt 0.182773 0.317227
vt 0.062500 0.949986
vt 0.062500 1.000000
vt 0.158774 0.470238
vt 0.213617 0.337837
vt 0.000000 0.949986
vt 0.005527 1.000000
vt 1.000000 0.500000
vt 0.937500 0.500000
vt 0.062500 0.500000
vt 0.000000 0.500000
vt 0.812500 0.500000
vt 0.687500 0.500000
vt 0.562500 0.500000
vt 0.500000 0.500000
vt 0.437500 0.500000
vt 0.312500 0.500000
vt 0.187500 0.500000
vt 0.375000 0.208333
vt 0.625000 0.208333
vt 0.375000 0.708333
vt 0.625000 0.708333
vt 0.125000 0.708333
vt 0.875000 0.708333
vt 0.875000 0.541667
vt 0.625000 0.541667
vt 0.875000 0.583333
vt 0.625000 0.583333
vt 0.875000 0.625000
vt 0.625000 0.625000
vt 0.875000 0.666667
vt 0.625000 0.666667
vt 0.375000 0.541667
vt 0.125000 0.541667
vt 0.375000 0.583333
vt 0.125000 0.583333
vt 0.375000 0.625000
vt 0.125000 0.625000
vt 0.375000 0.666667
vt 0.125000 0.666667
vt 0.625000 0.041667
vt 0.375000 0.041667
vt 0.625000 0.083333
vt 0.375000 0.083333
vt 0.625000 0.125000
vt 0.375000 0.125000
vt 0.625000 0.166667
vt 0.375000 0.166667
s 0
f 30/1/1 35/2/1 38/2/1 37/1/1
f 8/3/2 7/4/2 29/5/2 3/6/2
f 1/7/3 31/8/3 5/9/3 6/10/3
f 17/11/4 4/12/4 41/12/4 43/11/4
f 10/13/5 15/14/5 16/15/5 9/16/5
f 36/17/1 10/13/1 9/16/1 32/18/1
f 8/19/5 3/6/5 9/16/5 16/15/5
f 15/14/5 10/13/5 1/7/5 6/20/5
f 3/6/6 29/5/6 32/18/6 9/16/6
f 10/13/7 36/17/7 31/8/7 1/7/7
f 19/21/8 12/22/8 32/18/8 14/23/8
f 11/24/8 20/25/8 13/26/8 36/17/8
f 12/22/8 11/24/8 36/17/8 32/18/8
f 20/25/8 19/21/8 14/23/8 13/26/8
f 21/27/9 24/28/9 23/21/9 22/25/9
f 27/29/10 26/22/10 25/30/10 28/31/10
f 19/21/11 20/25/11 22/25/11 23/21/11
f 21/27/8 28/31/8 25/30/8 24/28/8
f 20/25/3 11/24/3 27/29/3 28/31/3 21/27/3 22/25/3
f 12/22/2 19/21/2 23/21/2 24/28/2 25/30/2 26/22/2
f 11/24/1 12/22/1 26/22/1 27/29/1
f 30/1/8 4/12/8 29/5/8 7/32/8
f 2/33/8 33/34/8 5/35/8 31/8/8
f 17/11/8 35/2/8 14/23/8 32/18/8
f 35/2/8 30/1/8 7/32/8 14/23/8
f 33/34/8 34/36/8 13/26/8 5/35/8
f 34/36/8 18/37/8 36/17/8 13/26/8
f 4/12/8 17/11/8 32/18/8 29/5/8
f 18/37/8 2/33/8 31/8/8 36/17/8
f 41/12/8 37/1/8 38/2/8 43/11/8
f 44/37/8 39/36/8 40/34/8 42/33/8
f 35/2/2 17/11/2 43/11/2 38/2/2
f 4/12/3 30/1/3 37/1/3 41/12/3
f 2/33/12 18/37/12 44/37/12 42/33/12
f 34/36/1 33/34/1 40/34/1 39/36/1
f 18/37/3 34/36/3 39/36/3 44/37/3
f 33/34/2 2/33/2 42/33/2 40/34/2
f 66/1/11 73/1/11 74/2/11 71/2/11
f 8/3/2 47/6/2 65/5/2 7/4/2
f 45/7/3 6/10/3 5/9/3 67/8/3
f 53/11/7 79/11/7 77/12/7 48/12/7
f 50/13/5 49/16/5 16/15/5 15/14/5
f 72/17/11 68/18/11 49/16/11 50/13/11
f 8/19/5 16/15/5 49/16/5 47/6/5
f 15/14/5 6/20/5 45/7/5 50/13/5
f 47/6/12 49/16/12 68/18/12 65/5/12
f 50/13/4 45/7/4 67/8/4 72/17/4
f 55/21/8 14/23/8 68/18/8 52/22/8
f 51/24/8 72/17/8 13/26/8 56/25/8
f 52/22/8 68/18/8 72/17/8 51/24/8
f 56/25/8 13/26/8 14/23/8 55/21/8
f 57/27/10 58/25/10 59/21/10 60/28/10
f 63/29/9 64/31/9 61/30/9 62/22/9
f 55/21/1 59/21/1 58/25/1 56/25/1
f 57/27/8 60/28/8 61/30/8 64/31/8
f 56/25/3 58/25/3 57/27/3 64/31/3 63/29/3 51/24/3
f 52/22/2 62/22/2 61/30/2 60/28/2 59/21/2 55/21/2
f 51/24/11 63/29/11 62/22/11 52/22/11
f 66/1/8 7/32/8 65/5/8 48/12/8
f 46/33/8 67/8/8 5/35/8 69/34/8
f 53/11/8 68/18/8 14/23/8 71/2/8
f 71/2/8 14/23/8 7/32/8 66/1/8
f 69/34/8 5/35/8 13/26/8 70/36/8
f 70/36/8 13/26/8 72/17/8 54/37/8
f 48/12/8 65/5/8 68/18/8 53/11/8
f 54/37/8 72/17/8 67/8/8 46/33/8
f 77/12/8 79/11/8 74/2/8 73/1/8
f 80/37/8 78/33/8 76/34/8 75/36/8
f 71/2/2 74/2/2 79/11/2 53/11/2
f 48/12/3 77/12/3 73/1/3 66/1/3
f 46/33/6 78/33/6 80/37/6 54/37/6
f 70/36/11 75/36/11 76/34/11 69/34/11
f 54/37/3 80/37/3 75/36/3 70/36/3
f 69/34/2 76/34/2 78/33/2 46/33/2
f 109/38/13 96/39/13 84/40/13 83/41/13
f 83/41/14 84/40/14 88/5/14 87/6/14
f 112/42/15 93/43/15 94/8/15 111/7/15
f 111/7/16 94/8/16 95/44/16 110/45/16
f 89/46/16 91/47/16 116/47/16 113/46/16
f 82/48/16 86/49/16 102/49/16 103/48/16
f 88/5/8 84/50/8 96/51/8 93/43/8
f 83/52/5 87/6/5 112/42/5 109/53/5
f 87/6/15 88/5/15 93/43/15 112/42/15
f 110/54/13 95/55/13 96/39/13 109/38/13
f 92/56/8 86/49/8 94/8/8 93/43/8
f 86/49/8 82/48/8 95/57/8 94/8/8
f 82/48/8 90/58/8 96/51/8 95/57/8
f 90/58/8 92/56/8 93/43/8 96/51/8
f 98/59/15 97/60/15 105/60/15 106/59/15
f 90/58/13 82/48/13 103/48/13 104/58/13
f 86/49/15 92/56/15 101/56/15 102/49/15
f 92/56/14 90/58/14 104/58/14 101/56/14
f 97/60/8 98/59/8 102/49/8 101/56/8
f 98/59/8 99/61/8 103/48/8 102/49/8
f 99/61/8 100/62/8 104/58/8 103/48/8
f 100/62/8 97/60/8 101/56/8 104/58/8
f 105/60/8 108/62/8 107/61/8 106/59/8
f 97/60/14 100/62/14 108/62/14 105/60/14
f 99/61/16 98/59/16 106/59/16 107/61/16
f 100/62/13 99/61/13 107/61/13 108/62/13
f 89/46/5 81/63/5 110/64/5 109/53/5
f 81/63/5 85/65/5 111/7/5 110/64/5
f 85/65/5 91/47/5 112/42/5 111/7/5
f 91/47/5 89/46/5 109/53/5 112/42/5
f 113/46/5 116/47/5 115/65/5 114/63/5
f 85/65/14 81/63/14 114/63/14 115/65/14
f 91/47/13 85/65/13 115/65/13 116/47/13
f 81/63/15 89/46/15 113/46/15 114/63/15
f 145/38/17 119/41/17 120/40/17 132/39/17
f 119/41/18 123/6/18 124/5/18 120/40/18
f 148/42/19 147/7/19 130/8/19 129/43/19
f 147/7/20 146/45/20 131/44/20 130/8/20
f 125/46/20 149/46/20 152/47/20 127/47/20
f 118/48/20 139/48/20 138/49/20 122/49/20
f 124/5/8 129/43/8 132/51/8 120/50/8
f 119/52/5 145/53/5 148/42/5 123/6/5
f 123/6/19 148/42/19 129/43/19 124/5/19
f 146/54/17 145/38/17 132/39/17 131/55/17
f 128/56/8 129/43/8 130/8/8 122/49/8
f 122/49/8 130/8/8 131/57/8 118/48/8
f 118/48/8 131/57/8 132/51/8 126/58/8
f 126/58/8 132/51/8 129/43/8 128/56/8
f 134/59/19 142/59/19 141/60/19 133/60/19
f 126/58/17 140/58/17 139/48/17 118/48/17
f 122/49/19 138/49/19 137/56/19 128/56/19
f 128/56/18 137/56/18 140/58/18 126/58/18
f 133/60/8 137/56/8 138/49/8 134/59/8
f 134/59/8 138/49/8 139/48/8 135/61/8
f 135/61/8 139/48/8 140/58/8 136/62/8
f 136/62/8 140/58/8 137/56/8 133/60/8
f 141/60/8 142/59/8 143/61/8 144/62/8
f 133/60/18 141/60/18 144/62/18 136/62/18
f 135/61/20 143/61/20 142/59/20 134/59/20
f 136/62/17 144/62/17 143/61/17 135/61/17
f 125/46/5 145/53/5 146/64/5 117/63/5
f 117/63/5 146/64/5 147/7/5 121/65/5
f 121/65/5 147/7/5 148/42/5 127/47/5
f 127/47/5 148/42/5 145/53/5 125/46/5
f 149/46/5 150/63/5 151/65/5 152/47/5
f 121/65/18 151/65/18 150/63/18 117/63/18
f 127/47/17 152/47/17 151/65/17 121/65/17
f 117/63/19 150/63/19 149/46/19 125/46/19
f 181/38/19 155/41/19 156/40/19 168/39/19
f 155/41/20 159/6/20 160/5/20 156/40/20
f 184/42/17 183/7/17 166/8/17 165/43/17
f 183/7/18 182/45/18 167/44/18 166/8/18
f 161/46/18 185/46/18 188/47/18 163/47/18
f 154/48/18 175/48/18 174/49/18 158/49/18
f 160/5/8 165/43/8 168/51/8 156/50/8
f 155/52/5 181/53/5 184/42/5 159/6/5
f 159/6/17 184/42/17 165/43/17 160/5/17
f 182/54/19 181/38/19 168/39/19 167/55/19
f 164/56/8 165/43/8 166/8/8 158/49/8
f 158/49/8 166/8/8 167/57/8 154/48/8
f 154/48/8 167/57/8 168/51/8 162/58/8
f 162/58/8 168/51/8 165/43/8 164/56/8
f 170/59/17 178/59/17 177/60/17 169/60/17
f 162/58/19 176/58/19 175/48/19 154/48/19
f 158/49/17 174/49/17 173/56/17 164/56/17
f 164/56/20 173/56/20 176/58/20 162/58/20
f 169/60/8 173/56/8 174/49/8 170/59/8
f 170/59/8 174/49/8 175/48/8 171/61/8
f 171/61/8 175/48/8 176/58/8 172/62/8
f 172/62/8 176/58/8 173/56/8 169/60/8
f 177/60/8 178/59/8 179/61/8 180/62/8
f 169/60/20 177/60/20 180/62/20 172/62/20
f 171/61/18 179/61/18 178/59/18 170/59/18
f 172/62/19 180/62/19 179/61/19 171/61/19
f 161/46/5 181/53/5 182/64/5 153/63/5
f 153/63/5 182/64/5 183/7/5 157/65/5
f 157/65/5 183/7/5 184/42/5 163/47/5
f 163/47/5 184/42/5 181/53/5 161/46/5
f 185/46/5 186/63/5 187/65/5 188/47/5
f 157/65/20 187/65/20 186/63/20 153/63/20
f 163/47/19 188/47/19 187/65/19 157/65/19
f 153/63/17 186/63/17 185/46/17 161/46/17
f 217/38/15 204/39/15 192/40/15 191/41/15
f 191/41/16 192/40/16 196/5/16 195/6/16
f 220/42/13 201/43/13 202/8/13 219/7/13
f 219/7/14 202/8/14 203/44/14 218/45/14
f 197/46/14 199/47/14 224/47/14 221/46/14
f 190/48/14 194/49/14 210/49/14 211/48/14
f 196/5/8 192/50/8 204/51/8 201/43/8
f 191/52/5 195/6/5 220/42/5 217/53/5
f 195/6/13 196/5/13 201/43/13 220/42/13
f 218/54/15 203/55/15 204/39/15 217/38/15
f 200/56/8 194/49/8 202/8/8 201/43/8
f 194/49/8 190/48/8 203/57/8 202/8/8
f 190/48/8 198/58/8 204/51/8 203/57/8
f 198/58/8 200/56/8 201/43/8 204/51/8
f 206/59/13 205/60/13 213/60/13 214/59/13
f 198/58/15 190/48/15 211/48/15 212/58/15
f 194/49/13 200/56/13 209/56/13 210/49/13
f 200/56/16 198/58/16 212/58/16 209/56/16
f 205/60/8 206/59/8 210/49/8 209/56/8
f 206/59/8 207/61/8 211/48/8 210/49/8
f 207/61/8 208/62/8 212/58/8 211/48/8
f 208/62/8 205/60/8 209/56/8 212/58/8
f 213/60/8 216/62/8 215/61/8 214/59/8
f 205/60/16 208/62/16 216/62/16 213/60/16
f 207/61/14 206/59/14 214/59/14 215/61/14
f 208/62/15 207/61/15 215/61/15 216/62/15
f 197/46/5 189/63/5 218/64/5 217/53/5
f 189/63/5 193/65/5 219/7/5 218/64/5
f 193/65/5 199/47/5 220/42/5 219/7/5
f 199/47/5 197/46/5 217/53/5 220/42/5
f 221/46/5 224/47/5 223/65/5 222/63/5
f 193/65/16 189/63/16 222/63/16 223/65/16
f 199/47/15 193/65/15 223/65/15 224/47/15
f 189/63/13 197/46/13 221/46/13 222/63/13
f 225/66/5 226/67/5 227/68/5 228/69/5 229/70/5 230/71/5 231/72/5 232/73/5 233/74/5 234/75/5 235/76/5 236/77/5 237/78/5 238/79/5 239/80/5 240/81/5
f 245/82/21 242/83/21 243/84/21 246/85/21
f 246/86/22 243/87/22 241/88/22 244/89/22
f 248/90/23 245/82/23 246/85/23 249/91/23
f 249/92/24 246/86/24 244/89/24 247/93/24
f 251/94/25 248/90/25 249/91/25 252/95/25
f 252/96/26 249/92/26 247/93/26 250/97/26
f 254/98/27 251/94/27 252/95/27 255/99/27
f 255/100/28 252/96/28 250/97/28 253/101/28
f 257/102/29 254/98/29 255/99/29 258/103/29
f 258/104/30 255/100/30 253/101/30 256/105/30
f 260/106/31 257/102/31 258/103/31 261/44/31
f 261/107/32 258/104/32 256/105/32 259/108/32
f 263/109/33 260/106/33 261/44/33 264/110/33
f 264/111/34 261/107/34 259/108/34 262/112/34
f 266/113/35 263/109/35 264/110/35 267/114/35
f 267/115/36 264/111/36 262/112/36 265/116/36
f 269/117/37 266/113/37 267/114/37 270/118/37
f 270/119/38 267/115/38 265/116/38 268/120/38
f 272/121/39 269/117/39 270/118/39 273/122/39
f 273/123/40 270/119/40 268/120/40 271/124/40
f 275/125/41 272/121/41 273/122/41 276/126/41
f 276/127/42 273/123/42 271/124/42 274/128/42
f 278/129/43 275/125/43 276/126/43 279/130/43
f 279/131/44 276/127/44 274/128/44 277/132/44
f 281/133/45 278/129/45 279/130/45 282/134/45
f 282/135/46 279/131/46 277/132/46 280/136/46
f 284/137/47 281/133/47 282/134/47 285/138/47
f 285/139/48 282/135/48 280/136/48 283/140/48
f 287/141/49 284/137/49 285/138/49 288/142/49
f 288/143/50 285/139/50 283/140/50 286/144/50
f 242/145/51 287/141/51 288/142/51 243/146/51
f 243/87/52 288/143/52 286/144/52 241/88/52
f 244/89/8 241/88/8 286/144/8 283/140/8 280/136/8 277/132/8 274/128/8 271/124/8 268/120/8 265/116/8 262/112/8 259/108/8 256/105/8 253/101/8 250/97/8 247/93/8
f 225/147/53 242/83/53 245/82/53 226/148/53
f 240/149/54 287/141/54 242/145/54 225/150/54
f 226/148/55 245/82/55 248/90/55 227/50/55
f 227/50/56 248/90/56 251/94/56 228/151/56
f 228/151/57 251/94/57 254/98/57 229/32/57
f 229/32/58 254/98/58 257/102/58 230/152/58
f 230/152/59 257/102/59 260/106/59 231/5/59
f 231/5/60 260/106/60 263/109/60 232/153/60
f 232/153/61 263/109/61 266/113/61 233/154/61
f 233/154/62 266/113/62 269/117/62 234/155/62
f 234/155/63 269/117/63 272/121/63 235/6/63
f 235/6/64 272/121/64 275/125/64 236/156/64
f 236/156/65 275/125/65 278/129/65 237/19/65
f 237/19/66 278/129/66 281/133/66 238/157/66
f 238/157/67 281/133/67 284/137/67 239/52/67
f 239/52/68 284/137/68 287/141/68 240/149/68
f 289/66/5 304/81/5 303/80/5 302/79/5 301/78/5 300/77/5 299/76/5 298/75/5 297/74/5 296/73/5 295/72/5 294/71/5 293/70/5 292/69/5 291/68/5 290/67/5
f 309/82/51 310/85/51 307/84/51 306/83/51
f 310/86/52 308/89/52 305/88/52 307/87/52
f 312/90/69 313/91/69 310/85/69 309/82/69
f 313/92/50 311/93/50 308/89/50 310/86/50
f 315/94/70 316/95/70 313/91/70 312/90/70
f 316/96/48 314/97/48 311/93/48 313/92/48
f 318/98/45 319/99/45 316/95/45 315/94/45
f 319/100/46 317/101/46 314/97/46 316/96/46
f 321/102/43 322/103/43 319/99/43 318/98/43
f 322/104/44 320/105/44 317/101/44 319/100/44
f 324/106/71 325/44/71 322/103/71 321/102/71
f 325/107/42 323/108/42 320/105/42 322/104/42
f 327/109/39 328/110/39 325/44/39 324/106/39
f 328/111/40 326/112/40 323/108/40 325/107/40
f 330/113/37 331/114/37 328/110/37 327/109/37
f 331/115/38 329/116/38 326/112/38 328/111/38
f 333/117/35 334/118/35 331/114/35 330/113/35
f 334/119/36 332/120/36 329/116/36 331/115/36
f 336/121/33 337/122/33 334/118/33 333/117/33
f 337/123/34 335/124/34 332/120/34 334/119/34
f 339/125/31 340/126/31 337/122/31 336/121/31
f 340/127/32 338/128/32 335/124/32 337/123/32
f 342/129/29 343/130/29 340/126/29 339/125/29
f 343/131/30 341/132/30 338/128/30 340/127/30
f 345/133/27 346/134/27 343/130/27 342/129/27
f 346/135/28 344/136/28 341/132/28 343/131/28
f 348/137/25 349/138/25 346/134/25 345/133/25
f 349/139/26 347/140/26 344/136/26 346/135/26
f 351/141/23 352/142/23 349/138/23 348/137/23
f 352/143/24 350/144/24 347/140/24 349/139/24
f 306/145/21 307/146/21 352/142/21 351/141/21
f 307/87/22 305/88/22 350/144/22 352/143/22
f 308/89/8 311/93/8 314/97/8 317/101/8 320/105/8 323/108/8 326/112/8 329/116/8 332/120/8 335/124/8 338/128/8 341/132/8 344/136/8 347/140/8 350/144/8 305/88/8
f 289/147/54 290/148/54 309/82/54 306/83/54
f 304/149/53 289/150/53 306/145/53 351/141/53
f 290/148/68 291/50/68 312/90/68 309/82/68
f 291/50/67 292/151/67 315/94/67 312/90/67
f 292/151/66 293/32/66 318/98/66 315/94/66
f 293/32/65 294/152/65 321/102/65 318/98/65
f 294/152/64 295/5/64 324/106/64 321/102/64
f 295/5/63 296/153/63 327/109/63 324/106/63
f 296/153/62 297/154/62 330/113/62 327/109/62
f 297/154/61 298/155/61 333/117/61 330/113/61
f 298/155/60 299/6/60 336/121/60 333/117/60
f 299/6/59 300/156/59 339/125/59 336/121/59
f 300/156/58 301/19/58 342/129/58 339/125/58
f 301/19/57 302/157/57 345/133/57 342/129/57
f 302/157/56 303/52/56 348/137/56 345/133/56
f 303/52/55 304/149/55 351/141/55 348/137/55
f 353/66/5 368/81/5 367/80/5 366/79/5 365/78/5 364/77/5 363/76/5 362/75/5 361/74/5 360/73/5 359/72/5 358/71/5 357/70/5 356/69/5 355/68/5 354/67/5
f 373/82/35 374/85/35 371/84/35 370/83/35
f 374/86/36 372/89/36 369/88/36 371/87/36
f 376/90/33 377/91/33 374/85/33 373/82/33
f 377/92/34 375/93/34 372/89/34 374/86/34
f 379/94/31 380/95/31 377/91/31 376/90/31
f 380/96/32 378/97/32 375/93/32 377/92/32
f 382/98/29 383/99/29 380/95/29 379/94/29
f 383/100/30 381/101/30 378/97/30 380/96/30
f 385/102/27 386/103/27 383/99/27 382/98/27
f 386/104/28 384/105/28 381/101/28 383/100/28
f 388/106/25 389/44/25 386/103/25 385/102/25
f 389/107/26 387/108/26 384/105/26 386/104/26
f 391/109/23 392/110/23 389/44/23 388/106/23
f 392/111/24 390/112/24 387/108/24 389/107/24
f 394/113/21 395/114/21 392/110/21 391/109/21
f 395/115/22 393/116/22 390/112/22 392/111/22
f 397/117/51 398/118/51 395/114/51 394/113/51
f 398/119/52 396/120/52 393/116/52 395/115/52
f 400/121/49 401/122/49 398/118/49 397/117/49
f 401/123/50 399/124/50 396/120/50 398/119/50
f 403/125/47 404/126/47 401/122/47 400/121/47
f 404/127/48 402/128/48 399/124/48 401/123/48
f 406/129/45 407/130/45 404/126/45 403/125/45
f 407/131/46 405/132/46 402/128/46 404/127/46
f 409/133/43 410/134/43 407/130/43 406/129/43
f 410/135/44 408/136/44 405/132/44 407/131/44
f 412/137/41 413/138/41 410/134/41 409/133/41
f 413/139/42 411/140/42 408/136/42 410/135/42
f 415/141/39 416/142/39 413/138/39 412/137/39
f 416/143/40 414/144/40 411/140/40 413/139/40
f 370/145/37 371/146/37 416/142/37 415/141/37
f 371/87/38 369/88/38 414/144/38 416/143/38
f 372/89/8 375/93/8 378/97/8 381/101/8 384/105/8 387/108/8 390/112/8 393/116/8 396/120/8 399/124/8 402/128/8 405/132/8 408/136/8 411/140/8 414/144/8 369/88/8
f 353/147/61 354/148/61 373/82/61 370/83/61
f 368/149/62 353/150/62 370/145/62 415/141/62
f 354/148/60 355/50/60 376/90/60 373/82/60
f 355/50/59 356/151/59 379/94/59 376/90/59
f 356/151/58 357/32/58 382/98/58 379/94/58
f 357/32/57 358/152/57 385/102/57 382/98/57
f 358/152/56 359/5/56 388/106/56 385/102/56
f 359/5/55 360/153/55 391/109/55 388/106/55
f 360/153/53 361/154/53 394/113/53 391/109/53
f 361/154/54 362/155/54 397/117/54 394/113/54
f 362/155/68 363/6/68 400/121/68 397/117/68
f 363/6/67 364/156/67 403/125/67 400/121/67
f 364/156/66 365/19/66 406/129/66 403/125/66
f 365/19/65 366/157/65 409/133/65 406/129/65
f 366/157/64 367/52/64 412/137/64 409/133/64
f 367/52/63 368/149/63 415/141/63 412/137/63
f 417/66/5 418/67/5 419/68/5 420/69/5 421/70/5 422/71/5 423/72/5 424/73/5 425/74/5 426/75/5 427/76/5 428/77/5 429/78/5 430/79/5 431/80/5 432/81/5
f 437/82/37 434/83/37 435/84/37 438/85/37
f 438/86/38 435/87/38 433/88/38 436/89/38
f 440/90/39 437/82/39 438/85/39 441/91/39
f 441/92/40 438/86/40 436/89/40 439/93/40
f 443/94/72 440/90/72 441/91/72 444/95/72
f 444/96/42 441/92/42 439/93/42 442/97/42
f 446/98/43 443/94/43 444/95/43 447/99/43
f 447/100/44 444/96/44 442/97/44 445/101/44
f 449/102/45 446/98/45 447/99/45 450/103/45
f 450/104/46 447/100/46 445/101/46 448/105/46
f 452/106/73 449/102/73 450/103/73 453/44/73
f 453/107/48 450/104/48 448/105/48 451/108/48
f 455/109/49 452/106/49 453/44/49 456/110/49
f 456/111/50 453/107/50 451/108/50 454/112/50
f 458/113/51 455/109/51 456/110/51 459/114/51
f 459/115/52 456/111/52 454/112/52 457/116/52
f 461/117/21 458/113/21 459/114/21 462/118/21
f 462/119/22 459/115/22 457/116/22 460/120/22
f 464/121/23 461/117/23 462/118/23 465/122/23
f 465/123/24 462/119/24 460/120/24 463/124/24
f 467/125/74 464/121/74 465/122/74 468/126/74
f 468/127/26 465/123/26 463/124/26 466/128/26
f 470/129/27 467/125/27 468/126/27 471/130/27
f 471/131/28 468/127/28 466/128/28 469/132/28
f 473/133/29 470/129/29 471/130/29 474/134/29
f 474/135/30 471/131/30 469/132/30 472/136/30
f 476/137/75 473/133/75 474/134/75 477/138/75
f 477/139/32 474/135/32 472/136/32 475/140/32
f 479/141/33 476/137/33 477/138/33 480/142/33
f 480/143/34 477/139/34 475/140/34 478/144/34
f 434/145/35 479/141/35 480/142/35 435/146/35
f 435/87/36 480/143/36 478/144/36 433/88/36
f 436/89/8 433/88/8 478/144/8 475/140/8 472/136/8 469/132/8 466/128/8 463/124/8 460/120/8 457/116/8 454/112/8 451/108/8 448/105/8 445/101/8 442/97/8 439/93/8
f 417/147/62 434/83/62 437/82/62 418/148/62
f 432/149/61 479/141/61 434/145/61 417/150/61
f 418/148/63 437/82/63 440/90/63 419/50/63
f 419/50/76 440/90/76 443/94/76 420/151/76
f 420/151/65 443/94/65 446/98/65 421/32/65
f 421/32/66 446/98/66 449/102/66 422/152/66
f 422/152/77 449/102/77 452/106/77 423/5/77
f 423/5/68 452/106/68 455/109/68 424/153/68
f 424/153/54 455/109/54 458/113/54 425/154/54
f 425/154/53 458/113/53 461/117/53 426/155/53
f 426/155/55 461/117/55 464/121/55 427/6/55
f 427/6/56 464/121/56 467/125/56 428/156/56
f 428/156/57 467/125/57 470/129/57 429/19/57
f 429/19/58 470/129/58 473/133/58 430/157/58
f 430/157/59 473/133/59 476/137/59 431/52/59
f 431/52/60 476/137/60 479/141/60 432/149/60
f 489/158/78 498/159/78 484/40/78 483/41/78
f 483/41/79 484/40/79 488/5/79 487/6/79
f 499/160/80 508/161/80 486/8/80 485/7/80
f 485/7/81 486/8/81 482/44/81 481/45/81
f 493/162/5 499/160/5 485/7/5 481/64/5
f 508/161/8 494/163/8 482/57/8 486/8/8
f 488/5/8 484/50/8 498/164/8 504/165/8
f 504/165/8 498/164/8 497/166/8 505/167/8
f 505/167/8 497/166/8 496/168/8 506/169/8
f 506/169/8 496/168/8 495/170/8 507/171/8
f 507/171/8 495/170/8 494/163/8 508/161/8
f 483/52/5 487/6/5 503/172/5 489/173/5
f 489/173/5 503/172/5 502/174/5 490/175/5
f 490/175/5 502/174/5 501/176/5 491/177/5
f 491/177/5 501/176/5 500/178/5 492/179/5
f 492/179/5 500/178/5 499/160/5 493/162/5
f 487/6/82 488/5/82 504/165/82 503/172/82
f 503/172/83 504/165/83 505/167/83 502/174/83
f 502/174/84 505/167/84 506/169/84 501/176/84
f 501/176/85 506/169/85 507/171/85 500/178/85
f 500/178/86 507/171/86 508/161/86 499/160/86
f 481/54/87 482/55/87 494/180/87 493/181/87
f 493/181/88 494/180/88 495/182/88 492/183/88
f 492/183/89 495/182/89 496/184/89 491/185/89
f 491/185/90 496/184/90 497/186/90 490/187/90
f 490/187/91 497/186/91 498/159/91 489/158/91
f 517/158/92 526/159/92 512/40/92 511/41/92
f 511/41/2 512/40/2 516/5/2 515/6/2
f 527/160/93 536/161/93 514/8/93 513/7/93
f 513/7/3 514/8/3 510/44/3 509/45/3
f 521/162/5 527/160/5 513/7/5 509/64/5
f 536/161/8 522/163/8 510/57/8 514/8/8
f 516/5/8 512/50/8 526/164/8 532/165/8
f 532/165/8 526/164/8 525/166/8 533/167/8
f 533/167/8 525/166/8 524/168/8 534/169/8
f 534/169/8 524/168/8 523/170/8 535/171/8
f 535/171/8 523/170/8 522/163/8 536/161/8
f 511/52/5 515/6/5 531/172/5 517/173/5
f 517/173/5 531/172/5 530/174/5 518/175/5
f 518/175/5 530/174/5 529/176/5 519/177/5
f 519/177/5 529/176/5 528/178/5 520/179/5
f 520/179/5 528/178/5 527/160/5 521/162/5
f 515/6/94 516/5/94 532/165/94 531/172/94
f 531/172/95 532/165/95 533/167/95 530/174/95
f 530/174/96 533/167/96 534/169/96 529/176/96
f 529/176/97 534/169/97 535/171/97 528/178/97
f 528/178/98 535/171/98 536/161/98 527/160/98
f 509/54/99 510/55/99 522/180/99 521/181/99
f 521/181/100 522/180/100 523/182/100 520/183/100
f 520/183/101 523/182/101 524/184/101 519/185/101
f 519/185/102 524/184/102 525/186/102 518/187/102
f 518/187/103 525/186/103 526/159/103 517/158/103
f 545/158/104 539/41/104 540/40/104 554/159/104
f 539/41/105 543/6/105 544/5/105 540/40/105
f 555/160/106 541/7/106 542/8/106 564/161/106
f 541/7/107 537/45/107 538/44/107 542/8/107
f 549/162/5 537/64/5 541/7/5 555/160/5
f 564/161/8 542/8/8 538/57/8 550/163/8
f 544/5/8 560/165/8 554/164/8 540/50/8
f 560/165/8 561/167/8 553/166/8 554/164/8
f 561/167/8 562/169/8 552/168/8 553/166/8
f 562/169/8 563/171/8 551/170/8 552/168/8
f 563/171/8 564/161/8 550/163/8 551/170/8
f 539/52/5 545/173/5 559/172/5 543/6/5
f 545/173/5 546/175/5 558/174/5 559/172/5
f 546/175/5 547/177/5 557/176/5 558/174/5
f 547/177/5 548/179/5 556/178/5 557/176/5
f 548/179/5 549/162/5 555/160/5 556/178/5
f 543/6/108 559/172/108 560/165/108 544/5/108
f 559/172/109 558/174/109 561/167/109 560/165/109
f 558/174/110 557/176/110 562/169/110 561/167/110
f 557/176/111 556/178/111 563/171/111 562/169/111
f 556/178/112 555/160/112 564/161/112 563/171/112
f 537/54/113 549/181/113 550/180/113 538/55/113
f 549/181/114 548/183/114 551/182/114 550/180/114
f 548/183/115 547/185/115 552/184/115 551/182/115
f 547/185/116 546/187/116 553/186/116 552/184/116
f 546/187/117 545/158/117 554/159/117 553/186/117
f 573/158/94 567/41/94 568/40/94 582/159/94
f 567/41/2 571/6/2 572/5/2 568/40/2
f 583/160/99 569/7/99 570/8/99 592/161/99
f 569/7/3 565/45/3 566/44/3 570/8/3
f 577/162/5 565/64/5 569/7/5 583/160/5
f 592/161/8 570/8/8 566/57/8 578/163/8
f 572/5/8 588/165/8 582/164/8 568/50/8
f 588/165/8 589/167/8 581/166/8 582/164/8
f 589/167/8 590/169/8 580/168/8 581/166/8
f 590/169/8 591/171/8 579/170/8 580/168/8
f 591/171/8 592/161/8 578/163/8 579/170/8
f 567/52/5 573/173/5 587/172/5 571/6/5
f 573/173/5 574/175/5 586/174/5 587/172/5
f 574/175/5 575/177/5 585/176/5 586/174/5
f 575/177/5 576/179/5 584/178/5 585/176/5
f 576/179/5 577/162/5 583/160/5 584/178/5
f 571/6/92 587/172/92 588/165/92 572/5/92
f 587/172/103 586/174/103 589/167/103 588/165/103
f 586/174/102 585/176/102 590/169/102 589/167/102
f 585/176/101 584/178/101 591/171/101 590/169/101
f 584/178/100 583/160/100 592/161/100 591/171/100
f 565/54/93 577/181/93 578/180/93 566/55/93
f 577/181/98 576/183/98 579/182/98 578/180/98
f 576/183/97 575/185/97 580/184/97 579/182/97
f 575/185/96 574/187/96 581/186/96 580/184/96
f 574/187/95 573/158/95 582/159/95 581/186/95
f 601/158/106 595/41/106 596/40/106 610/159/106
f 595/41/118 599/6/118 600/5/118 596/40/118
f 611/160/104 597/7/104 598/8/104 620/161/104
f 597/7/105 593/45/105 594/44/105 598/8/105
f 605/162/5 593/64/5 597/7/5 611/160/5
f 620/161/8 598/8/8 594/57/8 606/163/8
f 600/5/8 616/165/8 610/164/8 596/50/8
f 616/165/8 617/167/8 609/166/8 610/164/8
f 617/167/8 618/169/8 608/168/8 609/166/8
f 618/169/8 619/171/8 607/170/8 608/168/8
f 619/171/8 620/161/8 606/163/8 607/170/8
f 595/52/5 601/173/5 615/172/5 599/6/5
f 601/173/5 602/175/5 614/174/5 615/172/5
f 602/175/5 603/177/5 613/176/5 614/174/5
f 603/177/5 604/179/5 612/178/5 613/176/5
f 604/179/5 605/162/5 611/160/5 612/178/5
f 599/6/113 615/172/113 616/165/113 600/5/113
f 615/172/114 614/174/114 617/167/114 616/165/114
f 614/174/115 613/176/115 618/169/115 617/167/115
f 613/176/116 612/178/116 619/171/116 618/169/116
f 612/178/117 611/160/117 620/161/117 619/171/117
f 593/54/108 605/181/108 606/180/108 594/55/108
f 605/181/109 604/183/109 607/182/109 606/180/109
f 604/183/110 603/185/110 608/184/110 607/182/110
f 603/185/111 602/187/111 609/186/111 608/184/111
f 602/187/112 601/158/112 610/159/112 609/186/112
f 629/158/99 623/41/99 624/40/99 638/159/99
f 623/41/3 627/6/3 628/5/3 624/40/3
f 639/160/94 625/7/94 626/8/94 648/161/94
f 625/7/2 621/45/2 622/44/2 626/8/2
f 633/162/5 621/64/5 625/7/5 639/160/5
f 648/161/8 626/8/8 622/57/8 634/163/8
f 628/5/8 644/165/8 638/164/8 624/50/8
f 644/165/8 645/167/8 637/166/8 638/164/8
f 645/167/8 646/169/8 636/168/8 637/166/8
f 646/169/8 647/171/8 635/170/8 636/168/8
f 647/171/8 648/161/8 634/163/8 635/170/8
f 623/52/5 629/173/5 643/172/5 627/6/5
f 629/173/5 630/175/5 642/174/5 643/172/5
f 630/175/5 631/177/5 641/176/5 642/174/5
f 631/177/5 632/179/5 640/178/5 641/176/5
f 632/179/5 633/162/5 639/160/5 640/178/5
f 627/6/93 643/172/93 644/165/93 628/5/93
f 643/172/98 642/174/98 645/167/98 644/165/98
f 642/174/97 641/176/97 646/169/97 645/167/97
f 641/176/96 640/178/96 647/171/96 646/169/96
f 640/178/95 639/160/95 648/161/95 647/171/95
f 621/54/92 633/181/92 634/180/92 622/55/92
f 633/181/103 632/183/103 635/182/103 634/180/103
f 632/183/102 631/185/102 636/184/102 635/182/102
f 631/185/101 630/187/101 637/186/101 636/184/101
f 630/187/100 629/158/100 638/159/100 637/186/100
f 657/158/80 666/159/80 652/40/80 651/41/80
f 651/41/81 652/40/81 656/5/81 655/6/81
f 667/160/78 676/161/78 654/8/78 653/7/78
f 653/7/119 654/8/119 650/44/119 649/45/119
f 661/162/5 667/160/5 653/7/5 649/64/5
f 676/161/8 662/163/8 650/57/8 654/8/8
f 656/5/8 652/50/8 666/164/8 672/165/8
f 672/165/8 666/164/8 665/166/8 673/167/8
f 673/167/8 665/166/8 664/168/8 674/169/8
f 674/169/8 664/168/8 663/170/8 675/171/8
f 675/171/8 663/170/8 662/163/8 676/161/8
f 651/52/5 655/6/5 671/172/5 657/173/5
f 657/173/5 671/172/5 670/174/5 658/175/5
f 658/175/5 670/174/5 669/176/5 659/177/5
f 659/177/5 669/176/5 668/178/5 660/179/5
f 660/179/5 668/178/5 667/160/5 661/162/5
f 655/6/87 656/5/87 672/165/87 671/172/87
f 671/172/88 672/165/88 673/167/88 670/174/88
f 670/174/89 673/167/89 674/169/89 669/176/89
f 669/176/90 674/169/90 675/171/90 668/178/90
f 668/178/91 675/171/91 676/161/91 667/160/91
f 649/54/82 650/55/82 662/180/82 661/181/82
f 661/181/83 662/180/83 663/182/83 660/183/83
f 660/183/84 663/182/84 664/184/84 659/185/84
f 659/185/85 664/184/85 665/186/85 658/187/85
f 658/187/86 665/186/86 666/159/86 657/158/86
f 685/158/93 694/159/93 680/40/93 679/41/93
f 679/41/3 680/40/3 684/5/3 683/6/3
f 695/160/92 704/161/92 682/8/92 681/7/92
f 681/7/2 682/8/2 678/44/2 677/45/2
f 689/162/5 695/160/5 681/7/5 677/64/5
f 704/161/8 690/163/8 678/57/8 682/8/8
f 684/5/8 680/50/8 694/164/8 700/165/8
f 700/165/8 694/164/8 693/166/8 701/167/8
f 701/167/8 693/166/8 692/168/8 702/169/8
f 702/169/8 692/168/8 691/170/8 703/171/8
f 703/171/8 691/170/8 690/163/8 704/161/8
f 679/52/5 683/6/5 699/172/5 685/173/5
f 685/173/5 699/172/5 698/174/5 686/175/5
f 686/175/5 698/174/5 697/176/5 687/177/5
f 687/177/5 697/176/5 696/178/5 688/179/5
f 688/179/5 696/178/5 695/160/5 689/162/5
f 683/6/99 684/5/99 700/165/99 699/172/99
f 699/172/100 700/165/100 701/167/100 698/174/100
f 698/174/101 701/167/101 702/169/101 697/176/101
f 697/176/102 702/169/102 703/171/102 696/178/102
f 696/178/103 703/171/103 704/161/103 695/160/103
f 677/54/94 678/55/94 690/180/94 689/181/94
f 689/181/95 690/180/95 691/182/95 688/183/95
f 688/183/96 691/182/96 692/184/96 687/185/96
f 687/185/97 692/184/97 693/186/97 686/187/97
f 686/187/98 693/186/98 694/159/98 685/158/98
